<svg xmlns="http://www.w3.org/2000/svg" viewBox="0 0 360 640" fill="none">
  <defs>
    <linearGradient id="bg" x1="38" y1="24" x2="320" y2="616" gradientUnits="userSpaceOnUse">
      <stop stop-color="#DDD4CA"/>
      <stop offset="1" stop-color="#7A6C61"/>
    </linearGradient>
  </defs>
  <rect width="360" height="640" fill="url(#bg)"/>
  <circle cx="288" cy="104" r="86" fill="#FFFFFF" fill-opacity=".14"/>
  <ellipse cx="182" cy="588" rx="130" ry="26" fill="#000" fill-opacity=".15"/>
  <path d="M108 520c14-85 51-132 109-132 50 0 85 33 103 98l8 34H108Z" fill="#D6CBC2"/>
  <path d="M205 178c50 0 84 39 84 93 0 56-38 98-92 98-38 0-66-29-66-78 0-65 30-113 74-113Z" fill="#EFE9E2"/>
  <path d="M153 248c4-47 32-84 70-92 30-7 56 2 76 23-17-5-34-5-53-1-27 6-49 20-93 70Z" fill="#D8CEC4"/>
  <path d="M220 232c25 9 43 31 43 59 0 32-20 58-50 69 18-16 28-38 28-64 0-11-2-22-6-33-4-10-9-20-15-31Z" fill="#CEC2B7"/>
  <circle cx="242" cy="294" r="8" fill="#F5EFF6"/>
  <circle cx="242" cy="294" r="5" fill="#C6D4E8"/>
  <path d="M168 350h40c16 0 29 13 29 29v13h-98v-13c0-16 13-29 29-29Z" fill="#E2D8CE"/>
  <path d="M171 468h40v68h-40z" fill="#CDBFB2"/>
  <path d="M142 536h98v16h-98z" fill="#B6A494"/>
</svg>
